<mxfile host="app.diagrams.net" modified="2024-01-28T07:44:11.745Z" agent="Mozilla/5.0 (Windows NT 10.0; Win64; x64) AppleWebKit/537.36 (KHTML, like Gecko) Chrome/120.0.0.0 Safari/537.36 Edg/120.0.0.0" etag="XJYd5iKO55_aYClifFh4" version="23.0.2" type="device">
  <diagram name="ページ1" id="viwxZNO0xttdkQiqWSKb">
    <mxGraphModel dx="1317" dy="717" grid="1" gridSize="10" guides="1" tooltips="1" connect="1" arrows="1" fold="1" page="1" pageScale="1" pageWidth="827" pageHeight="1169" math="0" shadow="0">
      <root>
        <mxCell id="0" />
        <mxCell id="1" parent="0" />
        <mxCell id="MKbPjpooYof7cKEaCcDO-11" value="" style="rounded=1;whiteSpace=wrap;html=1;" vertex="1" parent="1">
          <mxGeometry x="320" y="410" width="190" height="130" as="geometry" />
        </mxCell>
        <mxCell id="MKbPjpooYof7cKEaCcDO-3" value="" style="endArrow=classic;html=1;rounded=0;" edge="1" parent="1">
          <mxGeometry width="50" height="50" relative="1" as="geometry">
            <mxPoint x="260" y="454" as="sourcePoint" />
            <mxPoint x="370" y="454" as="targetPoint" />
          </mxGeometry>
        </mxCell>
        <mxCell id="MKbPjpooYof7cKEaCcDO-5" value="注意文言リスト" style="text;html=1;align=center;verticalAlign=middle;resizable=0;points=[];autosize=1;strokeColor=none;fillColor=none;" vertex="1" parent="1">
          <mxGeometry x="340" y="500" width="110" height="30" as="geometry" />
        </mxCell>
        <mxCell id="MKbPjpooYof7cKEaCcDO-6" style="edgeStyle=orthogonalEdgeStyle;rounded=0;orthogonalLoop=1;jettySize=auto;html=1;exitX=1;exitY=0.5;exitDx=0;exitDy=0;" edge="1" parent="1" source="MKbPjpooYof7cKEaCcDO-8">
          <mxGeometry relative="1" as="geometry">
            <mxPoint x="590" y="454" as="targetPoint" />
          </mxGeometry>
        </mxCell>
        <mxCell id="MKbPjpooYof7cKEaCcDO-7" style="edgeStyle=orthogonalEdgeStyle;rounded=0;orthogonalLoop=1;jettySize=auto;html=1;entryX=0;entryY=0.75;entryDx=0;entryDy=0;" edge="1" parent="1" target="MKbPjpooYof7cKEaCcDO-8">
          <mxGeometry relative="1" as="geometry">
            <mxPoint x="340" y="520" as="sourcePoint" />
            <Array as="points">
              <mxPoint x="340" y="466" />
            </Array>
          </mxGeometry>
        </mxCell>
        <mxCell id="MKbPjpooYof7cKEaCcDO-8" value="注意文言の推薦" style="rounded=1;whiteSpace=wrap;html=1;" vertex="1" parent="1">
          <mxGeometry x="370" y="430" width="105" height="48" as="geometry" />
        </mxCell>
        <mxCell id="MKbPjpooYof7cKEaCcDO-10" value="注意時の状況" style="text;html=1;align=center;verticalAlign=middle;resizable=0;points=[];autosize=1;strokeColor=none;fillColor=none;" vertex="1" parent="1">
          <mxGeometry x="220" y="420" width="100" height="30" as="geometry" />
        </mxCell>
        <mxCell id="MKbPjpooYof7cKEaCcDO-12" value="有効な注意文言" style="text;html=1;align=center;verticalAlign=middle;resizable=0;points=[];autosize=1;strokeColor=none;fillColor=none;" vertex="1" parent="1">
          <mxGeometry x="500" y="420" width="110" height="30" as="geometry" />
        </mxCell>
      </root>
    </mxGraphModel>
  </diagram>
</mxfile>
